<?xml version="1.0" encoding="utf-8"?>
<!-- Generator: Adobe Illustrator 19.0.0, SVG Export Plug-In . SVG Version: 6.00 Build 0)  -->
<!DOCTYPE svg PUBLIC "-//W3C//DTD SVG 1.1//EN" "http://www.w3.org/Graphics/SVG/1.1/DTD/svg11.dtd">
<svg version="1.1" id="Layer_1" xmlns="http://www.w3.org/2000/svg" xmlns:xlink="http://www.w3.org/1999/xlink" x="0px" y="0px"
	 viewBox="0 0 55 55" style="enable-background:new 0 0 55 55;" xml:space="preserve">
<style type="text/css">
	.st0{fill:url(#SVGID_1_);}
	.st1{fill:#13C0D7;}
</style>
<g>
	<linearGradient id="SVGID_1_" gradientUnits="userSpaceOnUse" x1="53.9317" y1="-2.7077" x2="-9.0683" y2="69.2923">
		<stop  offset="0" style="stop-color:#13C0D7;stop-opacity:0"/>
		<stop  offset="1" style="stop-color:#13C0D7"/>
	</linearGradient>
	<circle class="st0" cx="27.5" cy="27.5" r="27"/>
	<path class="st1" d="M27.5,55C12.3,55,0,42.7,0,27.5C0,12.3,12.3,0,27.5,0S55,12.3,55,27.5C55,42.7,42.7,55,27.5,55z M27.5,1
		C12.9,1,1,12.9,1,27.5S12.9,54,27.5,54S54,42.1,54,27.5S42.1,1,27.5,1z"/>
</g>
<rect x="26.7" y="14.2" class="st1" width="1" height="27.7"/>
<rect x="13" y="26.8" class="st1" width="27.7" height="1"/>
</svg>
