<?xml version="1.0" encoding="utf-8"?>
<!-- Generator: Adobe Illustrator 19.0.0, SVG Export Plug-In . SVG Version: 6.00 Build 0)  -->
<!DOCTYPE svg PUBLIC "-//W3C//DTD SVG 1.1//EN" "http://www.w3.org/Graphics/SVG/1.1/DTD/svg11.dtd">
<svg version="1.1" id="Layer_1" xmlns="http://www.w3.org/2000/svg" xmlns:xlink="http://www.w3.org/1999/xlink" x="0px" y="0px"
	 viewBox="0 0 153.8 163.3" enable-background="new 0 0 153.8 163.3" xml:space="preserve">
<path id="XMLID_272_" fill="none" stroke="#FFFFFF" stroke-miterlimit="0" d="M22.2,83.7c0,17.8,7.6,33.6,19.5,44.8
	c0.4-0.8,0.6-1.5,0.9-2.1c1.7-2.6,4.3-5.1,6.2-6c3.4-1.7,1.7-5.3,1.5-7.2c-0.2-2.1,2.1-3.4,3-3c0.9,0.4,1.1-0.6,0.8-1.1
	c-0.6-0.6-1.3-1.1-1.9-3c-0.4-1.1,0.4-2.3,1.3-3.2c0,0,0.6-0.6,1.1-0.9c0.4-0.2,1.3-0.8,1.9-1.3c0.8-0.9,3-4,2.5-5.1
	c-0.2-1.5-1.7-2.5-2.5-3L56.3,92l-1.1-0.4c-1.1-1.3-3.5-3.2-3.5-5.3v-0.2c0-1.3,0.7-2.6,1.4-4c1.1-1.5,3.4-2.5,4.7-2.8
	c0.4-0.2,1.1-0.4,1.7-0.6c1.7-0.8,5.8-2.5,8.2-3.4c4.7-2.1,10.1-4.3,11.8-5.3c3.2-1.5,4.4-4,5.3-6.8c0.6-1.5,1.3-2.6,2.1-3.8
	c0,0,2.7-3.6,6.2-7.4c2.8-3.2,9.6-10,20.6-14.2c2.6-1.1,5.5-1.9,8.1-2.3C111.3,27.2,98,22,83.5,22C49.6,22.2,22.2,49.8,22.2,83.7z"
	/>
<path id="XMLID_273_" fill="none" stroke="#FFFFFF" stroke-miterlimit="0" d="M83.5,0.5c-45.7,0-83,37.2-83,83
	c0,37.4,24.6,69,58.6,79.4c0.4-0.8,0.8-1.3,1.1-1.9c3.6-5.7,1.1-9.3-2.1-11.7c-26.3-10.2-45-35.7-45-65.6
	c0-38.9,31.6-70.3,70.3-70.3c19.8,0,37.8,8.1,50.5,21.4c4,0,6.6,1.3,6.6,1.3c0.6,0.2,1.1,1.3,1.7,1.3c0.2,0,0.4,0,0.6,0
	c3.8,0,7.2,0.9,10.6,2.3C138.7,16.8,113,0.5,83.5,0.5z"/>
</svg>
